<?xml version="1.0" standalone="no"?>
<!DOCTYPE svg PUBLIC "-//W3C//DTD SVG 20010904//EN"
 "http://www.w3.org/TR/2001/REC-SVG-20010904/DTD/svg10.dtd">
<svg version="1.0" xmlns="http://www.w3.org/2000/svg"
 width="5750.000000pt" height="1000.000000pt" viewBox="0 0 5750.000000 1000.000000"
 preserveAspectRatio="xMidYMid meet">
<metadata>
Created by potrace 1.16, written by Peter Selinger 2001-2019
</metadata>
<g transform="translate(0.000000,1000.000000) scale(0.100000,-0.100000)"
fill="#000000" stroke="none">
<path d="M1070 5110 l0 -3780 1713 0 c971 0 1718 4 1726 9 8 5 16 35 20 72 5
57 9 64 29 67 20 3 22 9 22 57 0 50 2 54 30 64 30 10 30 11 30 80 0 63 2 71
19 71 30 0 40 21 43 89 2 52 6 65 21 67 9 1 17 -2 17 -7 0 -5 3 -9 8 -9 4 0 7
32 8 70 0 44 5 75 13 83 11 9 14 9 18 -1 11 -29 23 4 23 64 0 61 1 64 24 64
28 0 36 21 36 98 0 44 3 52 19 52 29 0 39 21 39 81 -1 66 7 83 33 76 17 -5 19
1 19 54 0 48 3 57 15 53 31 -12 45 15 45 88 0 57 3 69 14 65 24 -10 39 21 45
91 5 58 9 67 27 70 19 3 22 11 27 68 5 73 17 94 42 74 13 -11 15 -5 15 52 0
62 1 64 30 75 29 11 30 13 30 81 0 66 2 71 23 74 19 3 23 11 29 68 7 62 28 98
49 84 5 -3 9 20 9 51 0 47 3 56 15 51 12 -4 14 0 9 20 -6 23 -4 25 15 19 20
-6 21 -3 21 59 0 60 2 66 20 66 26 0 40 36 40 101 0 42 3 49 19 49 27 0 29 7
36 80 5 63 16 83 42 73 10 -4 13 8 13 50 0 31 5 59 10 62 6 3 10 15 10 26 0
10 7 19 15 19 8 0 15 -8 15 -17 0 -36 24 -82 44 -85 13 -2 22 -12 24 -25 3
-22 8 -25 42 -27 9 -1 16 -13 18 -29 3 -22 7 -27 21 -22 20 6 46 -18 36 -35
-6 -9 0 -12 35 -14 9 -1 16 -13 18 -28 3 -24 8 -28 33 -28 25 0 29 -4 29 -28
0 -24 4 -28 28 -27 20 0 28 -5 30 -21 2 -13 14 -23 35 -30 21 -6 32 -15 31
-26 -1 -13 10 -21 37 -30 41 -12 48 -21 27 -35 -8 -5 4 -10 32 -13 37 -4 46
-9 48 -27 2 -15 11 -23 30 -25 18 -2 28 -10 32 -28 5 -18 12 -24 27 -22 14 2
26 -5 34 -20 7 -13 11 -25 10 -28 -1 -3 10 -6 24 -8 16 -2 29 -12 35 -27 5
-13 19 -25 32 -27 15 -2 24 -11 26 -25 2 -15 11 -23 30 -25 21 -2 28 -9 30
-31 3 -23 7 -27 23 -22 24 8 50 -11 42 -31 -3 -9 2 -14 15 -14 22 0 44 -22 40
-40 -2 -7 12 -17 31 -22 25 -7 32 -13 28 -28 -3 -14 2 -19 25 -24 20 -4 28
-11 26 -23 -2 -11 6 -19 22 -23 15 -3 26 -15 30 -30 4 -16 13 -25 25 -25 14 0
21 -8 23 -27 3 -21 9 -27 30 -30 21 -2 26 -8 25 -25 -2 -18 2 -23 21 -23 18 0
25 -7 31 -32 5 -18 8 -41 7 -50 -1 -13 5 -18 23 -18 14 0 25 -3 26 -7 1 -5 2
-22 4 -40 4 -48 13 -64 32 -61 15 3 19 -7 23 -64 3 -36 8 -70 13 -74 4 -4 7 1
7 10 0 25 23 14 31 -15 4 -13 7 -75 8 -137 1 -111 -9 -159 -31 -146 -18 11
-28 -18 -28 -82 0 -57 -2 -62 -24 -68 -20 -5 -26 -14 -32 -51 -4 -29 -11 -45
-21 -45 -8 0 -19 -13 -24 -30 -8 -22 -17 -30 -36 -30 -14 0 -22 -4 -18 -10 11
-18 -16 -40 -49 -40 -22 0 -27 -3 -17 -9 23 -15 5 -41 -29 -41 -24 0 -33 -6
-40 -26 -8 -20 -15 -24 -31 -19 -18 6 -20 3 -17 -27 l3 -33 -88 0 -87 0 0
-262 0 -263 1624 0 1624 0 6 23 c3 12 6 1713 6 3780 l0 3757 -4385 0 -4385 0
0 -3780z m8410 3470 c-3 -8 -5 -1560 -5 -3448 l0 -3432 -1069 0 -1068 0 23 25
c13 13 34 25 47 25 16 0 22 6 22 21 0 13 8 23 21 26 14 4 17 8 9 13 -15 9 -4
30 15 30 8 0 15 13 17 33 2 27 7 31 25 29 23 -3 29 9 35 73 2 22 9 31 28 35
21 5 25 12 28 45 5 86 12 107 32 102 16 -4 20 3 26 42 10 62 10 571 0 644 -7
52 -10 57 -32 57 -23 0 -24 2 -24 72 0 56 -3 69 -12 60 -16 -16 -28 -15 -28 3
0 8 -4 15 -10 15 -5 0 -10 18 -10 39 0 55 -8 71 -37 71 -22 0 -25 4 -21 29 4
26 1 29 -21 28 -22 -2 -26 4 -35 48 -9 40 -16 50 -36 55 -17 4 -25 13 -24 28
0 15 -7 23 -28 27 -21 5 -28 12 -28 30 0 17 -6 25 -22 27 -15 2 -24 11 -26 25
-2 12 -12 25 -23 28 -13 5 -18 12 -14 25 4 13 -1 19 -26 24 -28 5 -31 9 -25
33 3 16 3 23 0 16 -7 -17 -57 6 -50 23 6 15 -11 30 -39 36 -11 2 -20 10 -20
18 0 8 -17 23 -39 33 -31 14 -36 20 -27 31 9 11 4 15 -29 20 -29 5 -40 11 -40
24 0 12 -12 21 -32 27 -23 7 -32 15 -30 28 2 9 -3 17 -10 18 -7 1 -22 2 -33 3
-14 1 -21 9 -23 28 -3 24 -8 28 -33 28 -24 0 -29 4 -29 24 0 21 -6 25 -32 28
-24 2 -34 8 -36 24 -2 13 -14 23 -35 30 -22 6 -31 14 -29 27 2 9 -3 18 -10 18
-7 1 -17 2 -23 4 -5 1 -18 3 -27 3 -9 1 -18 12 -20 25 -2 17 -11 23 -35 25
-24 2 -33 9 -35 25 -2 15 -12 23 -33 27 -24 4 -30 10 -30 30 0 20 -5 24 -30
25 -23 0 -31 5 -33 22 -2 15 -13 24 -33 28 -20 5 -29 13 -29 26 0 12 -7 19
-19 19 -24 0 -43 23 -35 44 4 9 3 16 -2 15 -36 -6 -54 2 -54 26 0 20 -5 25
-25 25 -21 0 -25 5 -25 30 0 25 -4 30 -24 30 -21 0 -25 6 -31 48 -5 41 -10 48
-28 48 -20 -1 -22 4 -25 66 -3 63 -5 69 -31 82 l-27 15 -1 125 c0 69 3 126 8
126 5 0 9 9 9 21 0 16 4 19 20 14 18 -6 20 -2 20 53 0 55 2 60 25 66 17 4 25
13 25 27 0 12 8 23 19 26 11 3 21 15 23 27 2 15 11 22 31 24 21 3 27 9 27 28
0 22 4 24 45 24 35 0 45 4 45 16 0 38 28 43 231 44 205 0 228 -5 213 -44 -5
-14 3 -16 55 -16 58 0 61 -1 61 -24 0 -21 6 -25 33 -28 26 -2 32 -7 30 -25 -2
-17 3 -22 24 -25 19 -2 29 -10 33 -28 4 -15 15 -27 30 -30 17 -4 25 -13 24
-27 0 -16 5 -20 23 -18 19 2 25 -3 30 -26 3 -18 12 -29 22 -29 12 0 22 -15 32
-47 11 -36 21 -49 36 -51 16 -2 23 -11 25 -35 3 -27 7 -33 33 -35 16 -2 53 -1
82 3 44 5 54 10 59 30 4 17 15 25 41 30 26 5 33 10 28 22 -7 21 11 33 52 33
28 0 32 3 30 23 -2 18 4 23 30 25 26 3 32 8 35 30 2 22 9 28 36 30 l32 3 0 64
c0 67 -17 99 -45 88 -11 -3 -17 4 -21 25 -4 21 -13 32 -28 34 -15 2 -21 10
-21 28 0 19 -6 26 -24 28 -17 3 -22 8 -18 23 3 12 0 19 -8 19 -8 0 -15 12 -17
28 -2 15 -9 28 -15 28 -7 1 -19 2 -27 3 -8 0 -16 11 -18 23 -2 14 -12 24 -28
28 -14 3 -26 11 -26 18 -1 7 -2 17 -3 22 0 6 -12 10 -26 10 -21 0 -25 5 -25
30 0 27 -3 30 -30 30 -22 0 -30 5 -30 18 0 11 -11 21 -32 27 -19 6 -35 18 -38
30 -3 11 -14 21 -25 23 -57 8 -66 13 -60 32 6 18 2 20 -34 20 -21 0 -46 3 -55
6 -17 7 -22 34 -6 34 6 0 10 4 10 9 0 5 -19 6 -42 4 -24 -3 -59 -1 -78 4 -28
8 -34 14 -32 31 l3 21 -325 1 -326 0 0 -24 c0 -22 -6 -26 -45 -32 -25 -3 -58
-4 -74 -2 -26 4 -29 2 -28 -21 2 -20 -3 -27 -20 -29 -16 -2 -23 -11 -25 -35
-3 -36 -27 -47 -51 -22 -20 19 -33 3 -29 -36 3 -21 -3 -29 -26 -38 -16 -7 -65
-46 -108 -87 -64 -60 -85 -74 -110 -74 -32 0 -44 -13 -44 -51 0 -18 -10 -23
-36 -20 -6 1 -14 -19 -17 -45 -6 -55 -19 -73 -42 -54 -13 11 -15 5 -15 -54 0
-42 -4 -65 -10 -61 -6 4 -10 -6 -10 -22 l-1 -28 -14 25 -14 25 -2 -30 c-1 -16
-1 -61 0 -100 2 -92 -9 -130 -37 -129 -20 1 -22 -5 -22 -53 0 -29 -4 -53 -10
-53 -5 0 -10 -9 -10 -20 0 -21 -20 -28 -21 -7 -2 34 -18 -35 -18 -80 -1 -46
-4 -53 -20 -53 -27 0 -30 -8 -36 -79 -5 -72 -11 -84 -36 -78 -19 5 -24 -7 -21
-43 1 -8 -1 -37 -4 -63 -6 -45 -8 -49 -30 -44 -23 4 -24 2 -24 -57 0 -56 -2
-62 -21 -63 -31 -3 -33 -7 -37 -84 -4 -65 -6 -69 -28 -69 -18 0 -24 -7 -29
-33 -4 -18 -6 -37 -5 -42 2 -6 2 -25 1 -42 -1 -25 -5 -33 -20 -33 -23 0 -31
-19 -31 -71 0 -21 -5 -39 -10 -39 -6 0 -10 -8 -8 -17 2 -12 -4 -19 -19 -21
-21 -3 -23 -9 -23 -63 0 -56 -1 -59 -25 -59 -24 0 -31 -12 -27 -50 1 -8 0 -34
-4 -57 -4 -37 -8 -43 -30 -43 -22 0 -24 -3 -24 -54 0 -74 -14 -109 -40 -101
-19 6 -20 2 -20 -55 0 -34 -3 -59 -8 -56 -4 2 -16 -2 -27 -10 -15 -11 -21 -30
-25 -82 -4 -59 -8 -67 -25 -67 -22 0 -32 -30 -34 -109 -1 -46 -2 -48 -26 -44
-24 5 -25 3 -25 -48 0 -67 -14 -106 -37 -102 -15 3 -18 -6 -21 -54 -3 -57 -9
-65 -44 -59 -9 1 -11 -12 -10 -94 l1 -60 -10 53 c-7 31 -16 52 -24 52 -18 0
-25 23 -25 85 0 53 -17 84 -40 70 -10 -6 -13 18 -12 108 1 39 -2 48 -16 46
-40 -4 -42 0 -42 67 0 59 -2 65 -15 54 -26 -21 -39 3 -43 80 -4 64 -6 70 -23
65 -23 -8 -28 2 -37 86 -6 56 -10 64 -29 67 -20 3 -23 9 -23 51 0 79 -10 112
-30 106 -25 -8 -28 0 -32 78 -2 64 -10 82 -22 55 -11 -28 -36 26 -36 79 0 49
-2 53 -24 53 -26 0 -26 2 -39 135 -1 12 -11 21 -24 23 -25 4 -28 21 -23 110 2
41 1 42 -29 42 -31 0 -31 1 -31 53 0 28 -3 63 -7 76 -6 23 -7 23 -13 6 -6 -18
-9 -17 -23 11 -9 17 -13 41 -10 52 8 31 -6 99 -17 82 -4 -7 -15 -10 -24 -7
-12 5 -16 20 -16 54 0 68 -9 91 -34 95 -18 3 -22 11 -26 68 -6 73 -14 92 -38
88 -14 -3 -17 7 -20 57 -3 78 -10 106 -25 104 -33 -4 -37 2 -37 56 0 43 -3 53
-14 49 -22 -9 -36 28 -36 95 0 58 -1 61 -24 61 -25 0 -36 28 -36 96 0 33 -24
69 -41 59 -5 -4 -10 9 -10 27 -2 33 -4 64 -7 106 -2 16 -8 22 -27 22 -23 0
-25 3 -25 49 0 61 -9 89 -22 69 -13 -20 -38 19 -38 61 0 55 -10 81 -31 81 -11
0 -20 3 -20 8 -1 4 -3 17 -4 28 -1 12 -5 33 -9 48 l-6 26 -248 -2 -247 -3 -5
-63 c-6 -70 2 -92 30 -92 18 0 20 -7 20 -74 l0 -74 30 -7 c29 -6 30 -8 30 -65
0 -68 8 -99 21 -78 7 10 9 9 9 -5 0 -10 4 -16 9 -13 5 3 12 -21 15 -54 4 -36
11 -58 17 -54 24 14 39 -19 39 -87 l0 -68 28 2 c27 2 27 2 30 -72 3 -71 4 -73
32 -84 29 -11 30 -14 30 -72 0 -67 6 -81 35 -86 17 -4 20 -12 20 -54 0 -42 3
-50 20 -53 29 -6 35 -20 35 -89 0 -60 1 -63 24 -63 26 0 36 -28 36 -106 0 -38
3 -44 25 -50 18 -4 25 -13 26 -33 1 -14 2 -43 3 -65 2 -38 29 -72 47 -60 8 5
15 -80 11 -128 -1 -10 3 -18 8 -18 6 0 10 7 10 15 0 8 6 15 14 15 15 0 24 -39
29 -121 2 -29 5 -35 21 -31 26 7 36 -15 36 -84 0 -58 2 -62 25 -68 23 -6 25
-11 25 -69 0 -69 6 -83 35 -88 17 -4 21 -15 26 -72 3 -37 9 -70 12 -74 4 -3 7
1 7 10 0 10 5 17 10 17 6 0 10 -9 10 -20 0 -11 5 -20 10 -20 6 0 10 -27 10
-61 0 -54 2 -60 15 -49 24 20 35 1 39 -67 4 -70 10 -83 37 -83 16 0 19 -7 19
-54 0 -73 14 -110 40 -103 18 4 19 -1 22 -72 3 -68 5 -76 23 -76 28 0 35 -13
35 -71 0 -46 2 -51 23 -50 18 1 22 -5 25 -34 4 -67 14 -122 19 -116 3 3 14 1
24 -5 16 -8 19 -21 19 -74 0 -64 9 -81 45 -84 6 0 12 -30 15 -66 5 -62 21 -92
42 -79 9 6 10 1 9 -81 0 -33 2 -54 5 -47 3 6 14 12 24 12 19 0 36 -44 32 -85
-3 -39 8 -64 31 -67 20 -3 22 -9 25 -75 3 -67 5 -73 27 -79 20 -5 25 -14 31
-61 5 -44 11 -57 30 -65 13 -6 24 -15 24 -20 0 -4 -652 -8 -1450 -8 l-1450 0
0 3434 c0 1889 -3 3441 -6 3450 -6 15 353 16 4047 14 3598 -3 4053 -5 4049
-18z"/>
<path d="M9430 5150 c0 -2280 3 -3410 10 -3410 7 0 10 1130 10 3410 0 2240 -3
3410 -10 3410 -6 0 -10 -1170 -10 -3410z"/>
<path d="M34154 5461 c-2 -2 -4 -295 -5 -650 0 -396 -4 -637 -9 -623 -5 12
-16 22 -25 22 -9 0 -15 9 -15 24 0 19 -7 26 -30 31 -21 5 -30 13 -30 26 0 14
-7 19 -26 19 -29 0 -67 31 -46 38 6 2 12 8 12 13 0 6 -72 9 -180 9 -167 -2
-180 -3 -175 -19 6 -20 -30 -41 -69 -41 -17 0 -23 -5 -22 -17 1 -12 -10 -21
-31 -28 -18 -5 -32 -14 -32 -20 3 -26 -3 -34 -28 -37 -20 -2 -27 -8 -25 -21 2
-9 -4 -20 -13 -23 -9 -4 -14 -12 -11 -20 3 -7 -2 -18 -10 -25 -13 -10 -17 -10
-25 2 -6 10 -9 1 -9 -27 0 -36 -4 -43 -24 -48 -24 -6 -36 -42 -36 -113 0 -30
-5 -35 -26 -32 -15 2 -24 -30 -24 -87 0 -36 -7 -74 -17 -94 -15 -30 -17 -32
-29 -16 -11 15 -13 -12 -16 -160 -2 -122 -7 -179 -14 -181 -7 -2 -9 -14 -6
-26 5 -21 4 -21 -16 3 l-21 25 -1 -295 c0 -162 -3 -355 -7 -427 -4 -96 -3
-133 6 -133 7 0 11 23 11 64 0 81 9 123 26 130 12 5 14 -27 14 -207 -2 -268
11 -354 53 -369 4 -2 10 -33 14 -70 4 -46 9 -65 18 -62 7 3 23 -17 38 -48 15
-29 27 -49 27 -43 0 5 9 -8 21 -29 11 -22 26 -45 32 -52 29 -33 37 -44 37 -53
0 -13 35 -32 44 -24 3 3 6 1 6 -6 0 -22 27 -40 69 -47 25 -4 41 -12 41 -20 0
-8 7 -14 15 -14 8 0 15 -4 15 -8 0 -11 7 -11 158 -11 118 0 125 1 150 24 15
14 39 25 55 25 20 0 30 7 37 25 9 22 20 30 42 26 4 0 15 11 24 25 13 19 19 22
25 12 6 -9 9 -6 9 10 0 33 27 27 34 -9 3 -17 3 -35 0 -41 -3 -5 8 -14 25 -21
17 -6 31 -15 31 -19 0 -4 54 -8 119 -8 93 0 123 3 135 15 8 8 19 15 25 15 6 0
11 9 11 20 0 11 5 20 10 20 7 0 10 612 10 1815 0 998 -4 1815 -8 1815 -18 0
-22 -293 -24 -1849 l-2 -1606 -6 1745 c-3 960 -9 1753 -14 1763 -4 9 -13 18
-20 19 -24 4 -268 3 -272 -1z m-235 -1701 c7 -11 21 -20 31 -20 12 0 20 -11
24 -35 4 -19 15 -40 25 -47 10 -7 21 -23 25 -36 4 -12 17 -29 30 -37 14 -9 23
-27 24 -47 2 -18 9 -58 17 -88 l13 -55 1 50 c1 51 14 85 27 72 10 -10 18 -710
10 -780 -6 -47 -10 -55 -26 -52 -24 5 -30 -19 -30 -122 0 -81 -1 -83 -24 -83
-18 0 -25 -7 -29 -29 -3 -15 -3 -38 0 -50 3 -12 1 -22 -6 -22 -6 -1 -16 -2
-23 -3 -7 0 -17 -21 -23 -46 -10 -41 -14 -45 -45 -50 -29 -4 -34 -9 -32 -26 4
-27 -19 -34 -113 -34 -76 0 -101 9 -92 33 6 16 -11 27 -44 27 -14 0 -19 7 -19
26 0 17 -6 28 -20 31 -11 3 -20 14 -20 24 0 11 -4 19 -10 19 -5 0 -10 15 -10
34 0 47 -9 66 -31 66 -17 0 -19 9 -20 75 -1 41 -3 80 -4 85 -1 6 -3 19 -4 30
-1 25 -18 26 -23 3 -3 -12 -9 -3 -16 22 -21 70 -9 730 13 730 6 0 11 -28 13
-62 3 -61 22 -91 22 -35 1 84 14 228 21 237 5 5 9 -4 9 -23 0 -44 18 -40 25 6
10 56 13 63 35 69 12 3 20 14 20 27 0 12 20 43 45 70 25 27 45 53 45 58 0 5 4
6 10 3 5 -3 18 -1 27 5 29 18 135 4 152 -20z"/>
<path d="M16695 5400 c10 -16 -14 -40 -40 -40 -26 0 -35 -22 -35 -86 0 -43
-29 -100 -30 -59 -1 17 -2 18 -10 4 -5 -8 -10 -89 -12 -180 -3 -167 8 -246 39
-277 7 -7 13 -20 13 -28 0 -7 9 -19 20 -26 11 -7 20 -21 20 -30 0 -15 8 -16
66 -12 50 4 69 2 75 -8 7 -10 9 -11 9 0 0 9 7 11 20 7 11 -3 20 -2 20 3 0 5
13 12 29 15 22 5 31 13 36 36 3 16 13 32 21 35 9 3 12 11 8 18 -5 7 -2 9 8 6
13 -5 18 10 28 82 6 49 8 95 4 101 -4 7 -10 84 -13 173 l-6 160 -25 6 c-18 4
-26 14 -28 32 -2 19 -12 29 -34 37 -21 7 -28 15 -24 26 4 13 -8 15 -80 15 -57
0 -83 -3 -79 -10z"/>
<path d="M25078 5388 c-2 -14 -12 -24 -28 -28 -21 -5 -26 -14 -34 -57 -8 -41
-14 -53 -30 -55 -20 -3 -21 -11 -28 -153 -4 -85 -3 -185 2 -230 6 -44 10 -85
10 -91 0 -7 8 -11 17 -10 10 0 19 -8 22 -21 3 -13 15 -33 26 -45 11 -13 18
-27 17 -32 -2 -5 5 -3 14 5 12 9 18 10 21 3 2 -7 22 -9 53 -6 34 3 50 1 50 -7
0 -7 8 -6 24 4 13 9 28 15 32 13 16 -4 53 22 59 42 4 11 11 18 16 15 5 -4 9 3
9 14 0 12 5 21 11 21 5 0 7 -5 3 -12 -4 -7 -3 -8 5 -4 6 4 9 16 6 26 -3 9 -1
30 5 46 17 44 2 448 -16 433 -10 -8 -17 -2 -29 28 -9 21 -14 46 -11 55 3 12
-2 18 -14 18 -32 0 -50 11 -50 31 0 17 -8 19 -79 19 -74 0 -80 -1 -83 -22z"/>
<path d="M34860 5396 c0 -7 -7 -19 -15 -26 -8 -7 -15 -23 -15 -36 0 -19 -5
-24 -25 -24 -24 0 -25 -2 -25 -72 -1 -89 -8 -228 -16 -285 -3 -28 -10 -43 -20
-43 -9 0 -14 -11 -14 -30 0 -16 5 -30 10 -30 6 0 10 -7 10 -16 0 -8 5 -12 10
-9 6 4 10 -7 10 -27 0 -35 24 -71 53 -81 10 -4 16 -11 12 -17 -3 -5 6 -12 20
-16 14 -3 25 -9 25 -13 0 -3 32 -6 70 -6 39 0 70 3 70 8 0 4 9 7 20 7 11 0 28
9 37 20 10 11 23 20 30 20 7 0 13 9 13 19 0 11 5 23 11 26 6 4 8 13 5 21 -9
23 5 45 24 39 28 -9 27 74 -2 105 -20 21 -23 39 -31 174 -4 83 -6 168 -3 189
3 31 2 36 -9 27 -16 -13 -35 -5 -35 14 0 8 -7 19 -16 27 -8 7 -13 21 -11 31 5
16 -3 18 -94 18 -77 0 -99 -3 -99 -14z"/>
<path d="M11086 5301 c-4 -5 -1 -11 6 -13 28 -10 -7 -28 -53 -28 -41 0 -49 -3
-49 -19 0 -26 -25 -44 -54 -39 -21 4 -25 1 -28 -21 -2 -20 -9 -27 -30 -29 -19
-2 -28 -9 -28 -22 0 -11 -10 -20 -25 -24 -18 -5 -25 -13 -25 -31 0 -23 -13
-30 -50 -27 -3 0 -6 -11 -5 -26 0 -15 -6 -27 -12 -28 -7 -1 -19 -2 -26 -3 -8
0 -18 -21 -23 -48 -8 -42 -12 -48 -31 -45 -20 3 -23 -1 -23 -33 0 -25 -4 -34
-12 -29 -8 5 -9 2 -5 -9 8 -20 -12 -34 -23 -17 -8 12 -13 -13 -22 -100 -2 -17
-10 -26 -25 -28 -23 -3 -25 -9 -27 -82 -1 -20 -7 -26 -28 -28 -28 -3 -28 -3
-28 -85 0 -103 -7 -130 -30 -124 -24 6 -30 -27 -30 -152 0 -62 -4 -101 -12
-109 -16 -16 -28 -15 -28 3 0 8 -4 15 -10 15 -6 0 -10 -252 -10 -700 0 -465 3
-700 10 -700 6 0 10 26 10 59 0 71 9 123 21 115 5 -3 9 -71 9 -152 0 -184 15
-334 34 -344 8 -4 17 -26 21 -48 4 -22 11 -42 16 -46 5 -3 9 -12 9 -21 0 -9 8
-23 18 -32 10 -9 24 -35 32 -58 7 -24 16 -43 21 -43 4 0 14 -19 24 -42 9 -23
25 -48 36 -56 10 -7 19 -19 19 -25 1 -25 36 -84 48 -80 7 3 12 -4 12 -19 0
-27 10 -43 28 -44 28 -2 31 -5 34 -29 2 -14 7 -25 11 -25 5 1 23 -10 42 -24
18 -14 38 -26 44 -26 6 0 11 -9 11 -20 0 -16 7 -20 31 -20 23 0 32 -5 36 -21
4 -14 12 -19 24 -16 11 3 19 1 19 -4 0 -5 13 -9 29 -9 16 0 36 -7 44 -15 26
-26 106 -36 281 -34 158 1 171 2 188 21 11 13 35 22 65 26 33 3 55 12 70 29
12 13 36 26 53 30 17 3 35 14 41 24 5 11 16 19 23 19 8 0 19 7 26 15 7 8 15
13 19 11 4 -3 13 -1 21 4 12 8 15 47 15 227 0 120 -2 264 -4 321 -3 101 -4
102 -30 108 -63 13 -61 13 -55 -12 5 -19 1 -24 -23 -29 -49 -11 -53 -14 -53
-33 0 -13 -9 -21 -29 -25 -17 -4 -30 -14 -34 -26 -4 -18 -13 -21 -57 -21 -48
0 -50 -1 -35 -17 14 -13 14 -18 3 -24 -14 -7 -179 -13 -335 -10 -92 1 -93 1
-93 26 0 21 -5 25 -30 25 -23 0 -33 6 -40 25 -6 15 -17 25 -30 25 -15 0 -20 7
-20 25 0 20 -5 25 -25 25 -25 0 -29 8 -26 43 1 9 -5 20 -14 23 -9 4 -14 13
-11 20 3 9 -2 14 -14 14 -17 0 -20 7 -20 53 0 37 -3 48 -10 37 -8 -13 -10 -12
-10 3 0 9 -7 17 -15 17 -11 0 -15 13 -15 54 0 52 -12 80 -24 54 -3 -9 -9 -7
-20 6 -12 15 -16 44 -16 118 0 95 -1 98 -20 86 -10 -7 -23 -9 -27 -4 -10 9 -9
1041 1 1080 11 44 26 19 26 -45 0 -32 4 -59 9 -59 11 0 20 77 23 185 2 106 15
165 17 79 1 -47 4 -61 16 -61 10 0 15 10 15 27 0 54 12 91 27 85 10 -3 13 0
11 7 -8 21 36 133 52 133 7 0 17 12 21 27 7 28 39 79 39 63 0 -6 10 9 21 33
12 23 32 51 45 61 13 10 24 24 24 30 0 6 6 11 14 11 7 0 19 6 26 14 6 8 18 12
26 9 9 -3 14 1 14 12 0 9 5 13 10 10 6 -3 10 -1 10 5 0 7 6 10 14 7 8 -3 16
-1 19 6 5 15 289 16 294 0 2 -6 13 -9 23 -6 12 3 20 0 20 -6 0 -7 5 -9 10 -6
6 3 10 0 10 -8 0 -10 7 -13 18 -10 12 3 32 -8 56 -31 20 -20 41 -36 46 -36 6
0 20 -10 31 -21 14 -14 34 -22 58 -22 62 0 78 10 85 51 8 49 8 314 0 484 l-7
134 -46 3 c-51 2 -71 14 -71 42 0 15 -9 18 -52 21 -48 3 -53 5 -51 26 l3 22
-260 0 c-145 0 -261 -4 -264 -9z"/>
<path d="M29853 5288 c2 -21 -3 -24 -48 -28 -41 -4 -50 -8 -50 -24 0 -21 -48
-40 -74 -31 -9 4 -11 0 -7 -11 8 -21 -20 -43 -54 -44 -20 0 -22 -2 -10 -11 13
-8 12 -12 -7 -26 -13 -8 -23 -26 -23 -39 0 -16 -7 -24 -22 -26 -14 -2 -25 -12
-28 -28 -4 -14 -12 -24 -19 -22 -8 2 -10 -4 -6 -18 7 -22 -19 -30 -28 -7 -3 6
-6 -15 -6 -48 -1 -64 -5 -74 -36 -91 -17 -10 -20 -23 -23 -105 -2 -77 -6 -96
-22 -112 -12 -11 -20 -13 -20 -6 0 7 -3 9 -7 5 -7 -7 -9 -73 -13 -417 -2 -196
14 -341 37 -332 8 3 13 -2 13 -15 0 -36 33 -122 47 -122 7 0 14 -9 14 -20 1
-11 2 -23 4 -27 14 -51 19 -62 36 -66 10 -3 19 -13 19 -22 0 -10 11 -28 25
-41 14 -13 25 -30 25 -39 0 -9 5 -13 10 -10 6 3 10 -3 10 -14 0 -13 8 -21 22
-23 14 -2 24 -11 26 -23 2 -11 5 -27 8 -35 4 -13 6 -13 14 0 8 12 10 10 10 -7
0 -21 35 -50 53 -45 4 1 13 -9 19 -23 10 -23 21 -30 42 -26 5 1 6 -5 3 -14 -4
-8 -3 -15 2 -15 5 0 27 -18 50 -40 22 -22 46 -40 51 -40 6 0 10 -6 10 -13 0
-7 15 -20 33 -30 18 -10 44 -36 57 -57 13 -22 26 -37 29 -35 2 3 12 -9 22 -25
11 -17 26 -30 34 -30 9 0 21 -13 26 -30 6 -16 19 -32 30 -35 12 -4 19 -15 19
-30 0 -13 5 -27 10 -30 6 -3 10 -18 10 -32 0 -18 4 -24 15 -19 10 3 15 -1 16
-14 1 -11 3 -24 4 -30 1 -5 4 -25 5 -42 2 -31 3 -30 11 12 16 87 20 96 29 80
6 -12 16 -268 11 -306 0 -6 -11 -10 -23 -10 -22 1 -23 -4 -26 -71 -2 -57 -6
-73 -18 -73 -8 0 -19 -11 -24 -25 -7 -18 -17 -25 -35 -25 -20 0 -25 -5 -25
-24 0 -23 -3 -23 -97 -28 -113 -4 -278 4 -289 14 -4 4 -1 14 6 23 11 13 6 15
-35 15 -38 0 -48 4 -52 20 -3 11 -12 21 -19 21 -40 4 -56 17 -49 39 5 15 0 19
-22 22 -24 3 -28 7 -26 31 1 21 -2 28 -15 26 -42 -4 -54 1 -49 20 6 23 -10 31
-58 31 -23 0 -37 -6 -42 -18 -5 -9 -8 -169 -8 -356 0 -291 2 -340 15 -346 8
-4 32 -16 53 -26 22 -11 37 -26 37 -36 0 -13 8 -18 31 -18 38 0 69 -16 69 -35
0 -11 12 -15 44 -15 26 0 51 -6 60 -15 8 -8 19 -15 25 -15 6 0 11 -4 11 -9 0
-5 82 -10 192 -10 176 0 193 1 205 18 7 11 31 22 55 26 64 10 78 15 78 29 0 7
18 18 40 25 22 6 44 20 50 31 6 11 24 27 40 35 17 9 30 20 30 26 0 5 11 21 25
35 14 14 25 30 25 37 0 15 36 48 43 40 3 -2 13 22 23 55 12 42 22 58 31 55 8
-3 13 -2 12 3 -6 27 16 116 31 127 31 22 41 131 39 436 -1 157 -1 298 -1 314
1 27 -13 37 -21 15 -4 -10 -7 -10 -17 -1 -9 8 -16 54 -20 127 -3 63 -9 118
-13 122 -4 4 -7 -1 -7 -10 0 -10 -6 -16 -12 -13 -7 2 -12 15 -10 28 2 19 1 21
-7 9 -7 -10 -11 2 -13 45 -3 54 -5 60 -28 65 -21 5 -26 13 -30 50 -4 34 -10
47 -27 55 -13 5 -23 20 -25 35 -2 20 -8 24 -25 22 -19 -3 -23 2 -23 22 0 14
-4 26 -10 26 -5 0 -10 9 -10 20 0 16 -37 48 -49 41 -2 -1 -9 8 -15 21 -6 13
-18 23 -26 23 -8 0 -21 12 -28 28 -8 16 -21 27 -33 27 -13 0 -19 7 -19 24 0
19 -6 25 -27 28 -20 2 -29 9 -31 26 -3 16 -10 22 -28 22 -17 0 -25 7 -30 25
-4 16 -13 25 -26 25 -12 0 -23 11 -29 30 -8 22 -17 30 -34 30 -17 0 -25 7 -27
23 -2 14 -11 23 -25 25 -17 2 -23 10 -23 27 0 17 -6 25 -22 27 -19 2 -25 12
-32 51 -7 41 -11 47 -32 47 -23 0 -24 3 -24 64 0 60 -12 93 -23 64 -2 -7 -8
-9 -13 -5 -11 10 -18 248 -10 283 8 30 26 22 26 -11 0 -13 5 -27 10 -30 10 -6
11 -5 15 31 3 27 24 65 25 44 0 -8 8 1 16 20 27 60 31 65 50 65 11 0 20 6 20
13 1 6 2 17 3 23 0 6 10 9 21 6 10 -3 20 -1 22 5 5 13 191 19 257 8 30 -5 58
-15 63 -22 6 -11 8 -10 8 0 0 7 5 10 11 7 6 -4 8 -14 5 -22 -5 -11 -2 -13 10
-9 24 9 54 -12 54 -39 0 -15 6 -26 15 -26 8 -1 20 -2 26 -3 6 0 17 -10 25 -20
13 -18 46 -22 131 -14 23 2 33 88 31 265 -1 115 -3 142 -5 76 -3 -94 -5 -102
-23 -100 -18 1 -20 9 -20 92 0 49 -3 147 -7 218 -6 125 -7 127 -30 127 -18 0
-23 5 -23 25 0 23 -4 25 -42 25 -49 0 -78 13 -58 25 31 19 -30 25 -257 25
l-243 0 3 -22z"/>
<path d="M20683 5247 c-4 -7 -9 -762 -11 -1678 l-3 -1666 -25 -14 c-24 -12
-26 -18 -20 -58 3 -24 6 -59 6 -78 0 -21 4 -32 10 -28 6 4 25 -3 44 -14 32
-20 47 -21 370 -21 185 0 336 4 336 8 0 5 14 6 32 4 26 -4 30 -2 25 12 -7 18
10 24 78 30 22 2 43 4 46 5 4 1 9 9 12 19 4 19 60 37 78 26 5 -3 9 7 10 23 0
15 3 23 5 16 6 -14 94 45 94 63 0 6 11 19 24 27 13 9 29 22 37 29 8 7 21 13
29 13 8 0 15 10 16 22 1 26 30 73 44 73 6 0 18 16 27 35 9 19 20 35 24 35 4 0
15 22 25 50 10 28 26 52 36 56 10 3 18 12 18 20 0 21 30 77 46 87 7 4 16 28
20 52 4 27 14 51 24 58 13 9 21 32 26 76 5 50 11 65 25 68 13 4 19 14 19 32 0
14 5 44 11 65 6 23 11 147 12 297 2 230 6 283 22 268 2 -3 7 -41 11 -84 3 -44
8 -82 10 -84 11 -12 5 846 -6 873 -8 20 -9 20 -9 -1 -1 -13 -5 -23 -10 -23
-15 0 -22 60 -27 225 -5 192 -7 205 -34 198 -17 -5 -20 0 -20 28 -3 182 -2
174 -29 179 -24 5 -26 9 -29 70 -3 69 -13 90 -43 90 -16 0 -19 8 -19 45 0 39
-3 46 -30 60 -20 11 -30 23 -30 39 0 15 -7 26 -20 29 -13 3 -18 10 -14 21 3 9
1 16 -4 16 -6 0 -17 12 -24 28 -8 16 -21 27 -33 27 -14 0 -21 8 -23 27 -3 21
-9 27 -30 30 -19 2 -28 10 -30 26 -2 15 -10 22 -26 22 -30 0 -53 25 -34 37 8
5 -7 10 -42 13 -51 5 -55 7 -55 31 0 24 -1 25 -51 21 -58 -5 -94 10 -94 39 0
19 -7 19 -410 19 -308 -1 -411 -4 -417 -13z m325 -1725 c1 -757 6 -1152 12
-1152 7 0 10 392 10 1145 0 1011 2 1145 15 1145 8 0 15 -7 15 -15 0 -14 24
-15 175 -14 123 2 179 -1 187 -9 7 -7 20 -12 30 -12 9 0 21 -6 25 -13 4 -7 27
-19 51 -27 23 -7 42 -18 42 -23 0 -11 39 -47 52 -47 4 0 8 -7 8 -16 0 -8 4
-13 9 -10 5 3 12 -1 15 -10 3 -8 10 -12 16 -9 10 6 14 -7 11 -32 -1 -7 3 -13
8 -13 5 0 13 -10 17 -22 9 -29 34 -55 34 -36 1 22 80 -195 80 -219 0 -8 5 -11
10 -8 6 3 10 21 10 40 0 19 4 36 9 39 12 8 21 -92 23 -281 2 -90 6 -163 10
-163 5 0 8 40 8 89 0 64 4 92 14 100 12 10 15 -1 21 -71 8 -106 2 -664 -7
-674 -4 -4 -14 -1 -23 6 -17 14 -17 19 -16 -145 1 -90 -11 -165 -26 -165 -3 0
-12 8 -19 18 -12 15 -14 7 -15 -58 -1 -41 -1 -79 1 -85 2 -14 -30 -34 -46 -28
-11 4 -14 -7 -14 -51 0 -53 -1 -56 -25 -56 -20 0 -25 -5 -25 -24 0 -14 -4 -27
-9 -30 -5 -3 -7 -15 -4 -26 4 -16 0 -20 -21 -20 -22 0 -26 -4 -26 -31 0 -29
-2 -31 -29 -27 -26 4 -29 2 -28 -21 2 -21 -3 -27 -25 -29 -20 -2 -28 -9 -28
-22 0 -24 -8 -28 -58 -31 -32 -2 -42 -7 -42 -20 0 -9 -7 -20 -16 -23 -9 -3
-112 -6 -230 -6 l-214 0 0 1176 c0 936 3 1175 13 1172 9 -4 13 -246 15 -1156z"/>
<path d="M31193 5022 c-5 -20 -12 -22 -70 -22 -61 0 -64 -1 -58 -21 9 -28 -8
-39 -63 -39 -28 0 -42 -4 -41 -12 4 -30 -3 -38 -30 -38 -28 0 -30 -3 -36 -52
-4 -29 -5 -160 -3 -291 l3 -237 -112 0 -113 0 0 -142 c0 -131 -11 -289 -26
-378 -4 -26 -3 -31 5 -20 9 13 11 13 11 -2 0 -11 8 -18 20 -18 11 0 20 -3 20
-7 0 -12 134 -15 164 -4 l26 11 0 -842 c0 -850 2 -904 36 -933 6 -5 15 -26 18
-45 3 -19 13 -48 21 -64 8 -15 15 -35 15 -42 0 -8 7 -14 15 -14 8 0 16 -6 17
-12 0 -7 2 -17 3 -23 2 -5 3 -16 4 -22 0 -7 10 -13 20 -13 11 0 23 -9 26 -21
4 -12 12 -18 21 -15 8 3 14 1 14 -4 0 -4 13 -11 30 -15 16 -4 36 -15 43 -25
11 -16 27 -18 135 -17 67 0 122 4 122 9 0 4 9 8 20 8 11 0 20 6 20 13 0 10 11
13 34 12 30 -2 35 1 40 27 3 16 10 27 15 24 5 -3 14 7 21 23 13 33 10 513 -4
544 -11 23 -47 22 -53 -3 -4 -16 -14 -20 -47 -20 -48 0 -61 -8 -61 -35 0 -18
-7 -20 -60 -20 -57 0 -60 1 -60 25 0 18 -6 26 -22 28 -17 3 -23 12 -28 45 -3
23 -5 350 -3 726 l3 685 105 -1 c131 -2 185 8 213 38 21 23 22 31 23 269 1
183 0 221 -6 152 -10 -116 -20 -144 -31 -82 -4 25 -8 73 -8 107 -1 98 7 93
-155 93 -103 0 -147 4 -160 13 -17 12 -17 14 -2 20 14 6 16 39 16 332 0 314
-1 327 -20 348 l-21 22 -6 -23z"/>
<path d="M15948 4972 c-3 -25 -7 -27 -56 -30 -41 -2 -52 -6 -48 -17 6 -17 -10
-31 -47 -40 l-27 -7 0 -263 c0 -157 4 -266 10 -270 5 -3 7 -12 4 -20 -5 -11
-32 -15 -122 -17 l-117 -3 -6 -245 c-6 -247 0 -310 28 -310 7 0 13 -5 13 -10
0 -6 35 -9 95 -6 l96 4 -1 -787 c-1 -808 3 -971 25 -971 15 0 35 -51 35 -86 0
-13 6 -24 13 -24 14 0 41 -39 33 -47 -3 -3 2 -19 10 -36 12 -23 18 -27 25 -16
7 11 9 11 9 -3 0 -10 5 -18 10 -18 6 0 15 -12 20 -26 7 -17 15 -24 25 -20 8 3
15 1 15 -4 0 -6 7 -10 15 -10 9 0 26 -11 38 -24 21 -22 29 -24 145 -25 117 -2
125 -1 143 20 11 13 28 23 39 24 11 1 28 8 37 17 10 8 25 18 34 21 9 3 18 16
20 29 8 48 -6 517 -16 526 -6 6 -38 7 -75 3 -58 -5 -65 -8 -70 -31 -5 -21 -13
-26 -44 -28 -69 -6 -83 3 -90 52 -5 31 -13 47 -25 51 -11 3 -20 17 -22 33 -2
15 -3 331 -1 702 l2 675 154 -1 153 -2 17 29 c15 26 17 59 16 262 -1 127 -2
243 -3 257 l-2 25 -175 5 c-168 5 -175 6 -171 25 9 40 11 374 4 515 l-8 145
-77 2 c-76 1 -77 1 -80 -25z"/>
<path d="M12580 4352 c0 -25 -19 -42 -47 -42 -16 0 -23 -6 -23 -19 0 -12 -9
-21 -25 -25 -18 -5 -25 -13 -25 -31 0 -21 -5 -25 -30 -25 -29 0 -30 1 -30 50
l0 50 -169 0 -169 0 -5 -77 c-2 -43 -5 -584 -5 -1202 -1 -618 -5 -1147 -8
-1175 -6 -56 15 -143 34 -138 7 1 12 -4 12 -12 0 -12 23 -15 113 -18 140 -4
167 -1 167 18 0 8 4 13 9 9 5 -3 12 -1 16 5 3 6 8 401 10 878 4 813 9 986 28
938 4 -11 11 -47 14 -80 l7 -61 12 70 c21 112 24 121 35 104 6 -10 9 -7 9 14
0 31 36 90 50 82 5 -3 11 8 15 25 4 17 15 35 25 40 38 20 113 6 148 -27 7 -7
34 -13 59 -13 36 0 46 4 50 19 3 12 11 17 19 14 9 -3 14 2 14 16 0 12 5 21 10
21 6 0 10 24 10 54 0 45 -3 54 -20 59 -18 5 -20 14 -20 84 0 43 -3 142 -7 220
-6 134 -7 142 -27 145 -13 2 -22 12 -24 26 -3 21 -7 22 -118 22 -103 0 -114
-2 -114 -18z"/>
<path d="M13384 4354 c9 -25 -12 -44 -49 -44 -24 0 -32 -4 -31 -17 1 -10 -10
-19 -31 -25 -25 -6 -30 -12 -26 -28 4 -16 0 -20 -21 -20 -22 0 -26 -4 -26 -30
0 -25 -4 -30 -24 -30 -19 0 -25 -6 -28 -27 -2 -16 -10 -27 -21 -29 -26 -4 -29
-8 -34 -59 -3 -25 -10 -45 -14 -45 -5 0 -9 -9 -9 -20 0 -22 -16 -27 -23 -7 -8
23 -15 2 -18 -53 -3 -67 -7 -80 -25 -80 -23 0 -34 -36 -34 -117 0 -81 -9 -103
-42 -103 -16 0 -17 -31 -18 -546 0 -301 -3 -550 -5 -554 -8 -14 7 -182 16
-173 4 4 9 34 11 66 4 69 22 76 26 10 4 -65 -6 -113 -23 -113 -10 0 -15 -11
-15 -35 0 -28 4 -35 20 -35 17 0 20 -7 20 -44 0 -44 23 -100 48 -121 7 -5 14
-27 16 -48 3 -37 34 -90 47 -81 4 2 11 -6 15 -18 3 -12 15 -31 26 -42 11 -12
22 -32 25 -46 2 -15 14 -30 26 -35 11 -6 25 -19 31 -30 14 -26 39 -45 49 -38
5 3 11 -4 14 -16 5 -21 15 -26 75 -36 20 -4 46 -16 59 -28 23 -21 21 -21 314
-13 17 1 36 7 43 14 8 6 17 10 22 7 4 -3 10 2 14 10 3 8 17 15 31 15 14 0 25
5 25 11 0 6 8 8 19 4 13 -4 20 0 24 15 4 15 13 20 36 20 23 0 31 5 31 18 0 9
10 22 22 27 13 6 27 20 33 32 8 16 15 19 28 12 13 -8 17 -6 17 8 0 14 2 15 9
5 5 -9 11 4 15 37 5 35 11 51 21 51 23 0 21 105 -2 116 -10 4 -21 6 -25 6 -5
-1 -8 88 -8 197 0 110 -3 206 -6 215 -4 11 -19 16 -50 16 -38 0 -44 -3 -44
-21 0 -13 -8 -23 -20 -26 -14 -4 -19 -11 -15 -23 4 -14 0 -19 -17 -22 -17 -2
-23 -10 -23 -28 0 -21 -5 -26 -32 -28 -27 -3 -32 -7 -30 -25 2 -18 -4 -23 -28
-25 -59 -5 -75 -11 -68 -28 10 -26 -17 -34 -122 -34 -107 0 -128 6 -123 36 2
15 -5 20 -32 24 -27 4 -35 10 -35 25 0 13 -8 21 -23 23 -19 3 -23 9 -20 30 2
23 -1 27 -19 24 -29 -4 -36 11 -37 82 -1 56 -3 61 -26 66 -25 6 -25 7 -28 130
l-3 125 449 -3 449 -2 12 55 c14 60 12 725 -1 725 -5 0 -8 -12 -8 -27 0 -16
-4 -34 -9 -41 -17 -28 -31 46 -33 188 l-3 145 -27 13 c-27 13 -28 16 -28 88 0
71 -1 74 -24 74 -28 0 -36 16 -36 75 0 38 -2 43 -20 38 -19 -5 -25 4 -21 35 1
6 -3 12 -9 12 -5 0 -10 11 -10 24 0 19 -6 25 -27 28 -20 2 -29 9 -31 24 -2 15
-12 24 -33 28 -21 4 -29 11 -29 26 0 13 -7 20 -20 20 -24 0 -70 21 -70 32 0 4
5 8 10 8 6 0 10 5 10 10 0 6 -69 10 -186 10 -168 0 -186 -2 -180 -16z m227
-576 c22 -6 39 -15 39 -20 0 -5 14 -23 30 -40 19 -18 32 -44 36 -69 4 -22 12
-39 20 -39 15 0 20 -16 29 -92 3 -32 11 -58 16 -58 5 0 9 26 10 58 0 31 4 66
9 77 6 17 8 15 14 -15 3 -19 7 -72 8 -117 l3 -83 -302 0 c-167 0 -303 2 -303
5 0 3 11 10 25 15 23 9 25 15 26 72 0 35 4 72 9 83 7 16 9 13 15 -22 4 -24 11
-43 16 -43 10 0 22 37 15 49 -8 12 15 62 25 55 10 -6 29 29 29 54 0 11 11 27
25 36 14 9 25 25 25 36 0 11 7 20 14 20 8 0 27 11 42 25 30 28 65 31 125 13z"/>
<path d="M14694 4354 c10 -27 -13 -44 -60 -44 -36 0 -44 -3 -44 -19 0 -13 -10
-21 -34 -25 -26 -5 -36 -12 -38 -29 -2 -16 -11 -23 -30 -25 -22 -3 -28 -9 -28
-26 0 -18 -7 -25 -28 -29 l-29 -6 -6 -113 c-4 -62 -7 -159 -7 -214 0 -119 -7
-164 -26 -164 -9 0 -14 -11 -14 -30 0 -20 5 -30 15 -30 8 0 15 -8 15 -18 0 -9
9 -23 20 -30 11 -7 20 -20 20 -30 0 -11 3 -13 8 -6 4 6 31 15 60 19 42 5 52
11 52 26 0 12 5 16 15 13 11 -5 15 1 15 26 0 17 4 29 9 26 17 -11 39 5 50 35
5 16 16 29 24 29 8 0 22 11 31 25 10 16 26 25 41 25 14 0 25 6 25 14 0 18 110
41 147 31 15 -5 33 -9 38 -9 15 -1 66 -52 80 -79 6 -12 10 -40 7 -62 -3 -28
-1 -37 6 -30 6 6 12 25 14 44 2 19 8 36 14 38 14 5 24 -64 24 -158 0 -52 4
-70 16 -77 26 -15 4 -20 -89 -23 -77 -3 -86 -5 -82 -20 3 -10 2 -20 -2 -22 -5
-3 -53 -7 -107 -8 -89 -3 -97 -4 -93 -21 7 -24 -21 -38 -77 -38 -39 0 -45 -3
-48 -22 -2 -18 -10 -24 -40 -26 -32 -3 -37 -7 -40 -30 -2 -21 -9 -28 -30 -30
-19 -2 -28 -10 -30 -25 -2 -13 -12 -23 -28 -27 -21 -5 -25 -12 -28 -49 -3 -37
-7 -44 -33 -53 -28 -10 -29 -12 -29 -76 0 -74 -9 -96 -32 -87 -22 9 -24 -17
-26 -353 -1 -158 -5 -316 -8 -352 -4 -43 0 -92 11 -145 15 -74 25 -104 25 -76
0 7 5 9 11 6 6 -4 8 -13 5 -21 -3 -7 -1 -16 4 -19 6 -4 10 -19 10 -36 0 -16 5
-29 11 -29 17 0 34 -23 48 -67 14 -41 30 -57 32 -30 0 6 4 3 8 -8 4 -11 19
-22 32 -25 15 -4 25 -14 27 -28 2 -12 9 -23 15 -24 7 0 17 -2 22 -2 6 -1 17
-6 25 -11 48 -31 68 -35 188 -35 115 0 128 2 148 21 13 12 34 23 48 24 34 4
46 13 46 35 0 12 8 20 22 22 13 2 29 15 36 31 15 30 27 35 36 12 3 -8 1 -15
-4 -15 -6 0 -10 -11 -10 -25 0 -14 3 -24 8 -24 24 4 42 -3 42 -16 0 -17 1 -17
164 -15 104 1 111 3 135 27 23 23 25 32 23 96 -1 40 -4 502 -7 1027 -3 525 -8
962 -11 970 -4 12 -7 12 -13 1 -15 -24 -28 18 -36 118 -8 111 -11 121 -36 121
-15 0 -19 7 -19 39 0 55 -8 71 -36 71 -19 0 -24 5 -24 25 0 35 -26 72 -56 79
-15 4 -24 14 -24 26 0 16 -7 20 -31 20 -44 0 -71 17 -64 40 6 18 -4 19 -196
20 -184 1 -201 -1 -195 -16z m386 -1644 l0 -180 -25 0 c-23 0 -24 -3 -27 -77
-3 -73 -4 -78 -25 -77 -16 1 -23 -6 -27 -28 -3 -16 -10 -27 -14 -24 -5 3 -8
-5 -8 -17 1 -16 -6 -23 -29 -27 -20 -3 -30 -11 -30 -23 0 -27 -24 -37 -96 -37
-68 0 -118 20 -91 38 9 6 6 12 -13 20 -15 7 -25 20 -25 32 0 11 -3 19 -7 19
-31 -5 -33 3 -32 124 1 67 4 149 8 182 5 54 8 60 28 57 16 -2 22 3 25 20 2 13
8 23 13 24 21 2 45 17 45 28 0 15 71 36 98 29 14 -3 22 -1 22 7 0 10 3 10 15
0 13 -11 14 -10 9 3 -7 20 30 37 84 37 53 0 84 10 78 25 -5 14 2 25 16 25 4 0
8 -81 8 -180z"/>
<path d="M18924 4354 c9 -25 -12 -44 -49 -44 -25 0 -32 -4 -31 -17 0 -10 -9
-19 -24 -23 -15 -3 -26 -14 -28 -27 -2 -14 -12 -23 -25 -25 -16 -2 -23 -11
-25 -30 -2 -19 -9 -28 -21 -28 -22 0 -41 -19 -41 -42 0 -10 -5 -18 -11 -18 -6
0 -9 -7 -6 -15 8 -19 -13 -32 -23 -14 -6 9 -10 6 -13 -12 -18 -92 -23 -104
-40 -103 -14 2 -17 -7 -17 -41 0 -57 -8 -75 -36 -86 -23 -8 -24 -13 -24 -98 0
-83 -13 -141 -31 -141 -4 0 -9 6 -12 13 -2 6 -7 10 -10 7 -5 -5 -11 -1151 -6
-1235 l1 -30 8 30 c4 17 8 50 9 73 1 30 5 42 14 39 8 -2 12 -28 13 -78 1 -84
-2 -99 -22 -99 -9 0 -14 -12 -14 -35 0 -22 5 -35 13 -35 8 0 19 -23 26 -52 8
-29 22 -67 32 -84 10 -17 16 -34 13 -37 -8 -7 46 -127 57 -127 5 0 15 -16 23
-35 8 -19 19 -35 24 -35 5 0 14 -11 20 -25 6 -13 25 -31 42 -40 21 -11 30 -23
30 -41 0 -16 5 -24 13 -21 17 6 47 -11 47 -28 0 -9 16 -16 46 -21 25 -3 56
-16 68 -28 30 -29 33 -29 176 -26 69 2 140 4 158 4 17 1 32 4 32 9 0 4 7 7 15
7 8 0 15 5 15 11 0 5 4 8 9 4 5 -3 12 -1 16 5 3 5 19 10 34 10 31 0 43 21 45
75 1 25 6 30 31 35 l30 5 0 75 1 75 32 3 32 3 0 212 c0 246 -3 258 -71 255
-21 -1 -39 -5 -39 -10 0 -4 5 -8 12 -8 6 0 4 -7 -5 -18 -10 -10 -17 -28 -17
-40 0 -18 -6 -22 -30 -22 -25 0 -30 -4 -30 -25 0 -22 -5 -25 -35 -26 -57 -2
-60 -4 -57 -23 5 -30 -16 -36 -123 -36 -107 0 -121 4 -126 35 -3 13 -15 22
-34 25 -21 4 -30 11 -30 25 0 12 -9 21 -25 25 -20 5 -24 11 -22 34 3 22 0 27
-15 24 -15 -2 -20 9 -32 67 -16 81 -14 76 -38 79 -16 3 -18 15 -21 127 l-3
124 338 0 338 0 3 57 c2 32 -2 66 -7 77 -15 27 1 31 125 31 100 0 105 1 112
23 4 12 6 145 4 295 -3 267 -3 272 -22 262 -11 -6 -20 -7 -21 -3 0 4 -3 17 -6
28 -3 11 -8 103 -12 205 l-6 185 -52 3 -53 3 0 75 0 74 -31 0 c-28 0 -30 2
-28 33 4 65 1 75 -28 79 -20 2 -29 9 -31 24 -2 15 -12 24 -33 28 -21 4 -29 11
-29 26 0 15 -7 20 -27 20 -36 1 -65 23 -57 44 6 14 -12 16 -176 16 -164 0
-182 -2 -176 -16z m253 -590 c7 -9 10 -21 6 -27 -3 -6 -2 -8 3 -4 22 13 74
-59 74 -104 0 -15 4 -19 15 -15 19 7 30 -21 35 -89 1 -11 7 2 15 30 7 27 11
53 8 57 -2 5 0 8 5 8 5 0 13 -46 16 -102 4 -57 9 -111 12 -120 5 -17 -14 -18
-295 -18 l-301 0 20 20 c15 15 20 34 21 78 0 31 4 66 8 77 7 16 9 14 14 -14 4
-19 7 -45 8 -60 0 -15 7 -1 15 33 16 67 21 76 33 57 6 -9 11 1 16 30 8 52 29
89 51 89 8 0 13 4 9 10 -5 9 5 21 51 60 30 26 47 30 99 25 31 -3 55 -11 62
-21z"/>
<path d="M22894 4352 c7 -20 -27 -42 -64 -42 -11 0 -20 -7 -20 -16 0 -8 -16
-22 -35 -30 -23 -9 -35 -21 -35 -34 0 -16 -7 -20 -30 -20 -19 0 -30 -5 -29
-12 4 -21 -13 -83 -24 -90 -6 -4 -17 -2 -24 4 -10 8 -13 4 -13 -20 0 -52 -17
-84 -40 -77 -11 4 -20 3 -19 -2 1 -4 1 -32 0 -61 -1 -38 -5 -54 -17 -59 -9 -3
-19 0 -24 6 -9 16 -20 -45 -20 -115 0 -46 -2 -51 -22 -50 -21 1 -24 -5 -29
-64 -4 -36 -7 -103 -8 -150 -1 -87 -13 -127 -30 -102 -6 11 -10 10 -15 -3 -3
-9 -5 -218 -5 -463 1 -254 5 -410 9 -361 8 97 21 132 31 84 9 -43 11 -275 2
-275 -11 0 -11 -54 -1 -61 5 -3 11 -30 14 -60 6 -65 26 -139 36 -139 4 0 15
-27 24 -61 10 -34 25 -66 36 -72 10 -7 18 -23 18 -36 0 -14 13 -36 31 -53 25
-25 29 -34 24 -61 -5 -24 -4 -28 4 -17 9 13 11 12 11 -5 0 -17 2 -17 10 -5 5
8 10 10 10 4 0 -15 66 -84 80 -84 6 0 22 -11 36 -25 14 -14 30 -23 35 -20 5 4
9 1 9 -5 0 -6 6 -10 13 -8 6 1 37 -10 67 -25 51 -24 65 -26 185 -27 168 0 176
1 200 28 15 16 32 22 63 22 27 0 42 4 42 13 0 13 36 39 58 43 29 5 42 14 42
28 0 9 14 22 30 31 17 9 30 20 30 26 0 13 25 39 39 39 5 0 13 9 16 20 8 26 -1
549 -10 573 -5 13 -19 17 -52 17 -36 0 -44 -3 -39 -15 7 -18 -29 -39 -55 -32
-16 4 -19 1 -17 -21 2 -21 -2 -28 -19 -30 -15 -2 -23 -10 -23 -22 0 -24 -18
-35 -50 -31 -21 3 -22 1 -11 -13 17 -21 6 -36 -29 -36 -42 0 -58 -9 -53 -29 6
-23 -30 -31 -131 -31 -91 0 -114 7 -118 34 -2 16 -11 22 -40 24 -33 3 -38 7
-38 28 0 14 -6 27 -14 30 -8 3 -12 12 -9 20 5 12 -7 19 -29 15 -5 0 -8 22 -8
49 0 48 -1 51 -30 57 l-30 5 0 80 c0 73 -1 79 -19 73 -23 -7 -31 17 -31 103 0
55 2 62 20 62 11 0 20 -5 20 -10 0 -7 144 -10 430 -10 237 1 434 -2 439 -5 5
-2 12 7 16 22 3 16 12 31 18 35 6 4 13 36 15 71 4 57 2 66 -17 79 -21 15 -21
23 -28 377 -6 327 -8 363 -23 371 -10 5 -20 7 -23 4 -9 -9 -19 97 -14 154 3
43 1 52 -12 52 -31 0 -42 17 -46 75 -2 31 -7 60 -10 63 -3 3 -5 0 -5 -6 0 -7
-4 -12 -10 -12 -5 0 -10 7 -10 16 0 8 -7 22 -15 30 -9 9 -13 25 -9 38 4 19 1
22 -23 21 -21 0 -27 4 -25 18 4 24 -33 69 -70 84 -20 9 -28 18 -24 28 4 12 -3
15 -33 15 -42 0 -65 18 -55 44 6 14 -12 16 -176 16 -171 0 -181 -1 -176 -18z
m231 -574 c14 -6 25 -14 25 -18 0 -4 12 -12 26 -18 14 -7 23 -16 20 -21 -10
-15 4 -39 25 -44 12 -3 19 -14 19 -29 0 -13 7 -33 15 -44 14 -19 14 -18 15 4
0 12 5 22 10 22 6 0 11 -10 11 -22 1 -13 3 -32 4 -43 1 -11 2 -50 3 -86 2 -65
3 -66 27 -61 23 4 33 -11 23 -34 -3 -5 -600 -6 -604 -1 -5 7 10 127 17 127 4
0 8 -8 8 -17 1 -36 13 -83 21 -78 5 3 11 23 15 45 4 22 11 40 16 40 5 0 10 12
10 28 l1 27 7 -30 c6 -26 8 -21 13 29 3 39 10 61 21 67 8 5 21 25 27 44 6 19
16 35 21 35 5 0 9 7 9 16 0 10 6 14 15 10 10 -3 17 3 21 19 10 40 102 59 159
33z"/>
<path d="M24174 4354 c10 -26 -13 -44 -54 -44 -29 0 -37 -4 -36 -16 0 -11 -12
-21 -34 -29 -19 -6 -36 -19 -38 -28 -2 -9 -12 -19 -22 -22 -13 -4 -19 -14 -17
-28 1 -15 -4 -22 -18 -22 -15 0 -21 -8 -23 -32 -2 -25 -8 -33 -22 -33 -25 0
-39 -26 -41 -81 -3 -50 -14 -70 -35 -62 -11 4 -14 -8 -15 -58 0 -35 -4 -199
-8 -364 -5 -221 -4 -317 5 -365 6 -36 9 -69 6 -74 -3 -5 2 -7 11 -3 10 4 18
-1 22 -14 4 -10 10 -19 14 -19 5 0 11 -13 14 -29 4 -17 14 -30 26 -34 12 -3
21 -13 21 -25 0 -10 16 -36 35 -56 19 -21 35 -42 35 -47 0 -5 11 -14 25 -21
13 -6 23 -14 20 -17 -2 -4 0 -13 6 -21 7 -13 9 -13 9 0 0 13 1 13 10 0 5 -8
15 -15 22 -16 29 -1 58 -16 58 -30 0 -8 16 -22 35 -30 19 -8 35 -19 35 -24 0
-6 7 -10 16 -10 18 0 44 -23 44 -39 0 -6 11 -13 25 -17 15 -4 28 -16 31 -29 3
-13 14 -25 25 -28 13 -3 19 -14 19 -32 0 -24 3 -26 24 -21 14 3 27 2 30 -2 3
-5 8 -52 11 -105 l6 -97 -24 0 c-18 0 -23 -5 -23 -22 1 -15 -7 -24 -24 -28
-14 -4 -24 -13 -22 -21 7 -27 -30 -39 -126 -39 -93 0 -138 11 -126 32 9 14
-15 28 -52 28 -38 0 -46 7 -33 31 8 16 6 19 -10 19 -30 0 -51 11 -51 26 0 8
-5 14 -11 14 -5 0 -15 14 -20 30 -10 28 -15 30 -59 30 -34 0 -50 -4 -54 -16
-3 -9 -6 -114 -6 -234 0 -181 -3 -220 -15 -230 -8 -7 -16 -11 -16 -9 -1 2 -5
74 -9 159 l-6 155 -2 -212 c-1 -127 2 -213 7 -213 5 0 22 -19 38 -42 15 -23
37 -43 48 -44 11 -2 28 -13 37 -24 11 -13 34 -24 57 -27 21 -3 49 -15 62 -27
22 -20 36 -22 192 -25 92 -1 167 1 167 6 0 10 63 39 103 47 15 4 27 13 27 21
0 14 31 37 47 34 22 -4 33 3 33 19 0 10 11 25 25 32 14 7 23 15 20 18 -2 3 9
17 25 32 17 16 30 37 30 48 0 12 9 27 20 35 22 15 40 57 40 93 0 14 12 37 28
52 l27 27 -1 332 c0 183 -4 336 -8 340 -4 4 -11 2 -15 -5 -13 -21 -29 27 -34
102 -5 68 -17 89 -44 79 -9 -4 -13 5 -14 31 -1 20 -2 42 -3 49 -1 6 -14 17
-31 22 -20 7 -31 18 -33 33 -2 12 -8 23 -13 23 -5 1 -15 2 -21 3 -7 0 -14 11
-16 23 -2 15 -11 23 -30 25 -20 2 -28 10 -32 29 -4 19 -10 25 -25 23 -27 -4
-47 15 -40 37 5 16 1 19 -27 19 -39 0 -60 12 -56 31 2 9 -9 15 -32 19 -26 4
-36 11 -40 30 -4 18 -14 26 -33 28 -21 3 -27 9 -27 28 0 19 -5 24 -24 24 -19
0 -24 6 -29 34 -8 47 4 226 14 226 5 0 9 6 9 14 0 8 14 23 30 33 17 9 30 20
30 24 0 31 165 33 195 3 7 -8 16 -14 19 -14 17 0 86 -36 86 -46 0 -14 47 -54
54 -47 3 4 6 -1 6 -10 0 -13 9 -17 34 -17 19 0 37 6 39 13 4 10 6 10 6 0 1 -7
6 -13 12 -13 5 0 8 3 6 8 -6 9 19 33 27 25 8 -9 6 536 -3 567 -4 15 -16 27
-31 30 -16 4 -26 14 -28 28 -3 18 -10 22 -38 22 -49 0 -77 16 -69 41 6 18 0
19 -195 19 -183 0 -202 -2 -196 -16z"/>
<path d="M26034 4352 c7 -21 -28 -42 -70 -42 -18 0 -24 -5 -22 -17 2 -13 -7
-21 -29 -27 -20 -6 -33 -17 -35 -30 -2 -12 -13 -23 -28 -26 -19 -4 -27 -16
-35 -50 -9 -37 -15 -45 -33 -44 -18 0 -22 -5 -22 -33 0 -37 -15 -73 -30 -73
-6 0 -10 8 -10 17 0 9 -3 13 -7 10 -3 -4 -9 -37 -12 -75 -4 -42 -10 -67 -18
-67 -28 0 -38 -29 -43 -118 -5 -86 -6 -92 -26 -91 -20 0 -22 -6 -28 -95 -3
-53 -6 -141 -6 -196 0 -55 -3 -110 -6 -122 -7 -27 -24 -30 -25 -5 0 14 -2 14
-9 -3 -5 -11 -8 -175 -8 -365 1 -190 4 -301 7 -248 6 98 13 120 32 101 7 -7
10 -84 7 -232 -1 -121 0 -221 5 -221 4 0 7 -22 7 -49 0 -28 5 -53 10 -56 6 -3
10 -15 10 -26 0 -11 8 -29 19 -40 10 -11 21 -38 24 -59 3 -21 14 -49 26 -61
12 -13 21 -33 21 -45 0 -11 12 -33 26 -47 16 -16 28 -42 31 -67 3 -22 8 -38
11 -36 9 10 43 -16 52 -40 5 -13 18 -24 28 -24 10 0 31 -13 45 -30 15 -17 37
-30 50 -30 12 0 34 -11 48 -24 29 -27 50 -30 205 -27 89 1 103 4 124 23 13 12
31 23 39 25 36 5 61 14 61 22 0 5 20 30 45 55 33 35 48 62 59 103 8 30 17 57
19 60 11 10 19 -114 14 -190 -7 -87 -17 -108 -41 -88 -13 11 -16 0 -18 -95 -3
-107 -3 -109 -28 -114 -23 -4 -25 -10 -26 -55 -1 -43 -4 -50 -22 -53 -12 -2
-22 -12 -24 -25 -2 -14 -11 -23 -25 -25 -13 -2 -20 -8 -17 -16 7 -18 -21 -38
-50 -38 -18 0 -26 -7 -28 -22 -3 -20 -9 -21 -142 -24 -143 -3 -179 5 -155 34
8 10 0 14 -43 16 -46 3 -53 6 -56 25 -2 16 -11 23 -35 25 -24 2 -33 8 -35 25
-2 15 -11 23 -30 25 -18 2 -28 10 -32 28 -5 21 -12 25 -42 26 -63 2 -62 5 -70
-228 -3 -117 -7 -224 -9 -238 -2 -14 -2 -51 -1 -82 l2 -58 500 0 c452 0 500 2
500 16 0 9 11 25 24 35 14 11 26 29 28 42 2 16 10 22 26 21 13 0 23 6 23 15 1
9 3 31 5 50 1 19 8 37 14 41 7 4 10 12 6 18 -3 5 3 12 14 15 15 4 20 14 20 39
0 47 10 78 25 78 24 0 37 130 41 405 2 149 6 281 10 295 7 23 8 22 15 -15 4
-22 9 -80 10 -130 3 -82 3 -78 9 50 4 77 6 679 6 1338 -1 1053 -3 1199 -16
1207 -8 5 -86 10 -174 10 l-158 0 4 -75 c2 -41 0 -75 -4 -75 -5 0 -8 11 -8 25
0 18 -5 25 -20 25 -15 0 -20 7 -20 25 0 20 -6 27 -30 32 -21 4 -30 11 -30 24
0 14 -7 19 -26 19 -29 0 -67 31 -46 38 6 2 12 8 12 13 0 5 -78 9 -181 9 -170
0 -180 -1 -175 -18z m270 -572 c10 -1 20 -10 23 -20 3 -10 15 -20 26 -22 12
-2 26 -13 32 -25 6 -12 22 -30 35 -41 18 -15 23 -29 23 -65 0 -26 4 -47 9 -47
4 0 8 5 8 10 0 6 5 10 11 10 6 0 9 -7 6 -15 -4 -8 -2 -17 3 -20 5 -3 7 -12 3
-20 -3 -8 0 -15 7 -15 6 0 9 -8 6 -17 -2 -10 -1 -36 3 -58 8 -40 8 -39 15 28
9 74 22 93 32 50 4 -15 8 -213 8 -440 1 -380 0 -414 -16 -430 -11 -11 -18 -13
-18 -5 0 7 -4 12 -10 12 -6 0 -10 -35 -10 -85 0 -83 0 -85 -24 -85 -19 0 -26
-7 -31 -30 -4 -16 -4 -34 0 -40 7 -11 -5 -37 -20 -42 -5 -2 -9 -8 -7 -14 1 -7
-4 -14 -13 -18 -8 -3 -15 -17 -15 -31 0 -22 -4 -25 -35 -25 -30 0 -35 -3 -35
-24 0 -29 -21 -36 -105 -36 -84 0 -106 8 -103 34 2 17 -3 22 -28 24 -29 3 -32
7 -39 48 -6 41 -13 49 -42 45 -9 -1 -13 13 -14 39 -2 63 -3 64 -29 70 -25 6
-25 8 -28 115 -1 61 -6 105 -10 98 -5 -8 -13 -9 -22 -3 -12 8 -16 53 -18 262
-5 307 3 444 24 427 9 -8 14 -33 14 -75 0 -36 5 -66 11 -70 8 -5 10 5 6 32 -6
50 12 266 24 278 5 6 12 0 17 -13 8 -21 9 -20 20 16 6 21 21 48 32 60 11 12
20 31 20 43 0 11 7 23 15 26 8 4 15 14 15 23 0 10 16 26 35 37 19 10 35 24 35
31 0 15 34 22 90 17 25 -2 53 -4 64 -4z"/>
<path d="M27744 4352 c7 -20 -27 -42 -64 -42 -13 0 -20 -7 -20 -20 0 -15 -9
-22 -30 -26 -21 -5 -30 -12 -30 -26 0 -10 -7 -21 -15 -24 -8 -4 -15 -17 -15
-30 0 -13 -5 -24 -10 -24 -6 0 -17 -14 -24 -31 -11 -27 -12 -18 -8 75 l5 106
-176 0 -175 0 -1 -1285 c-1 -706 -4 -1293 -7 -1302 -5 -14 -4 -15 4 -4 8 11
13 10 30 -7 24 -24 31 -25 177 -23 l110 1 23 33 22 33 1 880 c1 483 4 890 8
904 10 36 18 16 27 -70 l8 -75 8 60 c14 93 17 105 32 105 8 0 16 16 19 42 4
29 15 50 37 71 18 17 29 35 26 44 -4 9 4 18 23 24 16 6 32 17 35 24 7 20 66
28 112 16 33 -9 43 -18 54 -47 8 -20 16 -30 19 -23 2 6 14 -10 26 -37 l23 -49
7 29 c15 55 26 -1 32 -154 6 -159 23 -209 22 -64 -1 47 1 88 4 91 25 24 27
-45 27 -818 0 -798 0 -809 -20 -821 -16 -10 -20 -24 -20 -65 0 -29 5 -53 10
-53 6 0 10 -9 10 -19 0 -11 9 -23 20 -26 11 -3 20 -11 20 -16 0 -6 4 -8 9 -4
5 3 12 1 15 -4 9 -13 226 -14 226 -1 0 6 5 8 11 4 6 -3 15 -1 19 5 4 7 16 13
27 14 18 1 21 10 27 76 3 41 5 394 4 785 l-3 711 -5 -695 c-3 -382 -6 -696 -8
-697 -1 -2 -8 -3 -16 -3 -11 0 -14 165 -18 980 -5 919 -6 982 -23 1000 -10 11
-21 17 -25 15 -9 -5 -20 69 -20 130 0 36 -3 42 -17 39 -22 -6 -48 46 -40 77 8
32 -13 71 -35 65 -14 -3 -20 3 -24 24 -5 21 -13 29 -35 34 -21 4 -29 11 -29
26 0 14 -7 20 -22 20 -32 1 -60 24 -52 44 6 14 -11 16 -166 16 -162 0 -171 -1
-166 -18z"/>
<path d="M35864 4354 c10 -26 -13 -44 -54 -44 -29 0 -39 -4 -43 -20 -3 -13
-17 -22 -36 -26 -20 -4 -31 -13 -33 -28 -2 -15 -11 -22 -31 -24 -15 -2 -27 -9
-26 -15 3 -29 -3 -37 -29 -37 -27 0 -29 -2 -31 -47 -2 -53 -4 -58 -34 -58 -19
0 -22 -6 -25 -50 -3 -46 -6 -52 -32 -62 -28 -11 -30 -15 -30 -66 0 -68 -7 -87
-30 -87 -20 0 -28 -40 -33 -165 -2 -56 -4 -60 -24 -57 l-23 3 -2 -478 c-3
-542 0 -684 13 -698 6 -6 8 19 7 65 -3 61 0 75 12 75 12 0 15 -15 12 -90 -1
-49 -5 -98 -8 -107 -3 -9 2 -38 10 -63 9 -25 16 -66 16 -91 0 -32 4 -44 12
-42 17 6 38 -16 38 -40 0 -40 13 -82 25 -82 17 0 30 -28 33 -72 1 -10 13 -20
27 -24 19 -5 28 -15 32 -36 3 -16 12 -32 19 -35 7 -2 16 -18 19 -34 4 -16 11
-27 16 -23 5 3 9 -3 10 -13 0 -10 3 -13 6 -5 8 20 23 14 33 -13 6 -15 17 -25
29 -25 11 0 26 -9 34 -20 8 -12 18 -20 23 -19 5 1 23 -4 39 -11 17 -7 33 -13
38 -12 4 1 7 -2 7 -7 0 -28 130 -39 335 -28 11 0 27 8 35 18 8 9 30 20 48 23
17 4 32 12 32 16 0 5 6 7 14 4 8 -3 16 3 19 15 3 13 13 21 27 21 12 0 35 15
53 35 17 19 37 35 44 35 7 0 13 8 13 18 0 14 2 15 10 2 7 -11 11 -4 16 27 5
34 13 46 39 62 27 15 32 24 28 45 -4 18 0 28 11 32 18 7 46 65 46 95 0 11 6
19 13 19 19 0 36 37 40 89 2 23 9 46 15 50 5 3 13 27 17 54 6 37 11 47 26 47
18 0 19 19 19 625 0 549 -2 625 -15 625 -11 0 -15 12 -15 44 0 24 -3 53 -7 63
-6 16 -8 15 -14 -7 l-6 -25 -12 28 c-6 16 -11 54 -11 85 0 77 -8 100 -34 104
-18 3 -21 10 -24 58 -3 65 -18 100 -44 100 -14 0 -18 8 -18 36 0 31 -3 35 -20
29 -19 -6 -25 2 -21 33 1 6 -2 12 -7 12 -6 0 -13 11 -16 24 -4 15 -14 26 -29
28 -14 2 -23 11 -25 25 -2 15 -11 23 -30 25 -16 2 -31 12 -37 26 -7 16 -18 22
-40 22 -38 1 -67 22 -59 44 6 14 -14 16 -201 16 -187 0 -207 -2 -201 -16z
m244 -573 c24 -5 48 -15 55 -24 7 -8 21 -17 32 -19 11 -2 21 -12 23 -23 2 -12
13 -25 25 -30 15 -7 23 -20 25 -45 2 -19 12 -40 22 -47 10 -7 21 -28 24 -48 8
-39 26 -48 26 -12 0 12 5 29 10 37 8 12 10 10 11 -10 1 -14 2 -29 4 -35 1 -5
3 -73 5 -150 2 -113 4 -129 10 -85 16 114 35 120 44 13 8 -94 6 -488 -3 -527
-7 -34 -27 -45 -34 -19 -3 10 -5 -35 -6 -99 -1 -68 -5 -119 -11 -123 -6 -4 -9
-14 -8 -22 2 -9 -3 -18 -9 -20 -7 -3 -13 0 -13 6 0 6 -4 11 -10 11 -6 0 -10
-28 -10 -65 0 -62 -1 -65 -24 -65 -19 0 -25 -6 -28 -27 -2 -21 -8 -27 -21 -25
-15 3 -17 0 -8 -17 12 -21 11 -21 -51 -35 -20 -5 -26 -11 -21 -22 10 -26 -16
-34 -107 -33 -97 0 -125 8 -125 35 0 14 -9 20 -35 24 -29 4 -35 9 -33 28 2 16
-3 22 -16 22 -27 0 -43 24 -43 65 0 30 -3 35 -23 35 -26 0 -35 29 -35 110 0
43 -2 47 -22 46 l-23 -1 0 462 c0 254 3 465 8 469 12 12 17 0 25 -62 l9 -59 7
40 c12 65 17 75 30 75 13 0 27 42 30 87 1 12 11 30 23 40 11 10 24 33 27 51 6
23 15 34 32 38 13 4 30 14 37 24 25 34 93 47 175 31z"/>
<path d="M16626 4288 c-3 -13 -6 -554 -6 -1203 0 -1179 0 -1180 -21 -1193 -18
-12 -20 -21 -17 -97 2 -62 6 -81 14 -74 8 6 17 5 26 -4 7 -7 19 -12 26 -9 6 2
12 -1 12 -7 0 -7 35 -11 102 -11 82 0 111 4 149 21 39 18 48 26 47 48 0 14 5
55 11 91 14 87 16 2220 1 2220 -7 0 -10 -368 -10 -1084 0 -1075 0 -1084 -20
-1089 -20 -5 -20 0 -20 1082 0 598 -3 1143 -7 1209 l-6 122 -137 0 c-134 0
-138 -1 -144 -22z"/>
<path d="M17080 4218 c0 -51 -5 -124 -10 -162 -7 -48 -7 -72 0 -82 6 -7 10
-18 9 -26 -3 -27 1 -71 7 -65 3 3 9 29 13 57 3 28 11 52 16 53 6 1 11 -77 13
-215 2 -216 15 -288 24 -143 5 71 11 95 23 83 3 -2 7 -79 9 -169 3 -90 8 -184
12 -209 8 -43 8 -44 15 -15 4 17 7 51 8 78 0 26 6 47 11 47 6 0 10 -41 10
-103 0 -147 12 -317 22 -317 4 0 8 32 8 70 0 56 3 70 15 70 13 0 15 -22 15
-137 0 -161 9 -275 21 -267 5 3 9 34 9 69 0 63 13 93 25 57 3 -11 5 -88 4
-173 0 -85 0 -165 1 -179 2 -22 3 -20 12 10 5 19 12 47 15 63 9 48 23 29 24
-35 6 -302 8 -328 19 -328 5 0 10 28 12 63 2 34 8 62 13 62 6 0 12 -72 16
-185 3 -102 6 -187 8 -190 5 -10 20 36 20 67 1 17 5 34 10 38 17 10 23 -36 21
-163 -3 -140 6 -211 26 -219 8 -3 14 -11 14 -18 0 -18 33 -21 172 -15 104 4
119 7 137 27 12 12 21 35 21 50 0 21 3 24 10 13 5 -8 11 -12 14 -9 12 12 28
215 26 336 -2 130 4 178 20 168 4 -2 11 -35 16 -72 l8 -68 7 60 c4 33 7 122 8
198 1 75 5 137 10 137 12 0 21 -36 21 -82 0 -21 4 -38 9 -38 11 0 21 113 21
258 0 74 4 122 10 122 6 0 11 -10 11 -22 1 -13 3 -30 4 -38 1 -8 3 -26 5 -40
6 -63 27 84 24 176 -3 112 4 176 17 168 5 -3 9 -39 9 -80 0 -41 4 -74 9 -74
11 0 21 127 21 277 0 95 3 124 13 121 7 -3 13 -29 15 -71 3 -73 21 -94 21 -24
0 118 14 387 21 387 12 0 20 -40 20 -107 0 -78 19 -84 22 -8 2 87 3 90 10 95
4 3 2 27 -4 54 -11 51 -2 196 12 196 4 0 11 -30 15 -66 4 -36 10 -63 13 -59 4
4 9 92 12 196 3 113 9 190 15 192 6 1 11 -27 13 -65 2 -38 7 -68 11 -68 14 0
20 128 13 255 l-7 120 -161 3 -162 2 -11 -31 c-6 -18 -11 -76 -11 -130 0 -89
-2 -99 -18 -99 -30 0 -42 -44 -42 -155 0 -57 -5 -116 -11 -132 l-12 -28 -6 25
-7 25 -7 -25 c-4 -14 -10 -74 -13 -135 -7 -145 -10 -158 -34 -152 -19 5 -20
-1 -20 -124 0 -128 0 -129 -24 -135 -30 -7 -34 -24 -36 -167 -1 -109 -12 -163
-30 -152 -5 3 -10 13 -10 21 0 8 -4 14 -9 14 -4 0 -6 -49 -4 -108 4 -80 1
-125 -11 -172 -27 -104 -37 -97 -43 32 -6 137 -10 158 -33 158 -19 0 -20 8
-21 133 -1 72 -1 143 0 157 l1 25 -10 -23 c-12 -28 -35 -24 -34 6 0 12 -3 19
-8 16 -4 -3 -8 61 -8 143 0 81 -4 143 -8 137 -4 -6 -14 -13 -23 -16 -23 -9
-29 26 -30 186 -1 72 -3 123 -6 114 -2 -10 -8 -18 -13 -18 -19 0 -29 40 -31
131 -2 113 -9 170 -18 165 -4 -3 -13 -1 -21 4 -10 6 -15 47 -20 149 -4 78 -10
144 -14 148 -3 3 -6 0 -6 -8 -1 -10 -3 -9 -11 4 -9 15 -28 17 -164 17 l-155 0
0 -92z"/>
<path d="M25019 4243 c-1 -38 -2 -72 -4 -78 -1 -5 -3 -519 -3 -1141 -2 -1123
-2 -1132 -22 -1137 -16 -4 -20 -13 -20 -49 0 -59 11 -119 20 -113 5 3 14 -1
22 -8 7 -8 19 -12 26 -9 6 2 12 -1 12 -7 0 -15 216 -15 225 0 4 5 12 8 18 6 7
-2 18 3 25 10 9 9 18 10 26 4 8 -7 11 14 11 77 0 81 -2 88 -22 97 l-23 10 0
1171 c0 644 -3 1186 -6 1203 l-6 31 -139 0 -139 0 -1 -67z"/>
<path d="M31698 4208 c-9 -227 -8 -1898 1 -1898 5 0 11 27 13 60 4 57 12 80
23 68 17 -16 9 -244 -10 -291 -5 -12 -3 -17 6 -15 11 2 15 -14 17 -69 2 -40 7
-73 11 -73 11 0 51 -66 51 -83 0 -7 11 -24 25 -39 14 -15 25 -37 25 -48 0 -12
7 -28 15 -36 8 -9 15 -11 15 -5 0 24 21 9 35 -26 13 -30 18 -35 25 -23 7 12
10 9 10 -12 0 -27 17 -36 55 -28 5 1 14 -5 20 -13 15 -21 102 -37 214 -38 94
-1 101 1 128 25 15 14 38 26 50 26 13 0 23 5 23 11 0 5 4 8 8 5 5 -3 16 6 26
20 11 13 25 24 32 24 8 0 14 8 15 18 0 9 3 12 5 5 3 -7 12 -9 20 -6 8 3 17 -3
21 -13 9 -26 41 -56 52 -49 5 3 12 1 16 -5 9 -14 215 -13 215 1 0 6 9 9 19 6
12 -3 22 1 25 10 4 8 12 13 20 10 15 -6 26 38 26 109 0 34 -4 43 -25 52 l-25
12 0 1205 0 1205 -144 0 -144 0 -5 -47 c-2 -27 -5 -372 -6 -767 -1 -396 -4
-730 -7 -743 -6 -22 -7 -23 -20 -6 -16 22 -15 29 -23 -132 -6 -127 -6 -129
-31 -135 -23 -5 -25 -10 -22 -53 2 -35 -1 -49 -12 -53 -8 -3 -13 -11 -10 -19
3 -7 -4 -15 -15 -18 -14 -3 -21 -13 -21 -30 0 -20 -6 -26 -27 -29 -19 -2 -29
-10 -33 -28 -6 -24 -10 -25 -84 -28 -79 -3 -112 8 -102 34 3 7 -7 17 -25 23
-20 7 -29 17 -29 31 0 14 -5 20 -17 18 -15 -3 -19 8 -24 65 -5 65 -20 94 -41
81 -11 -7 -10 -64 -9 786 0 421 -3 828 -7 905 l-7 140 -167 3 -167 3 -3 -103z"/>
<path d="M34777 4208 c-2 -57 -5 -633 -6 -1280 -1 -1168 -1 -1178 19 -1198 11
-11 20 -24 20 -30 0 -6 47 -10 118 -11 149 -2 152 -1 179 24 l22 22 1 1187 c0
652 -3 1231 -6 1287 l-7 101 -168 0 -167 0 -5 -102z"/>
</g>
</svg>
